<svg width="100" height="100" fill="none" xmlns="http://www.w3.org/2000/svg"><g clip-path="url(#clip0_21_40)" fill="#FCD743"><path fill-rule="evenodd" clip-rule="evenodd" d="M50 1.233c-27.613 0-50 22.384-50 50C0 73.325 14.325 92.067 34.192 98.68c2.5.463 3.416-1.083 3.416-2.404 0-1.192-.045-5.13-.066-9.308-13.909 3.025-16.846-5.9-16.846-5.9-2.275-5.78-5.55-7.317-5.55-7.317-4.538-3.104.341-3.037.341-3.037 5.021.354 7.663 5.154 7.663 5.154 4.458 7.641 11.696 5.433 14.55 4.154.45-3.233 1.746-5.438 3.175-6.688-11.104-1.262-22.78-5.55-22.78-24.708 0-5.458 1.955-9.92 5.155-13.42-.52-1.263-2.233-6.347.483-13.234 0 0 4.2-1.342 13.754 5.125 3.988-1.108 8.263-1.663 12.513-1.683 4.25.02 8.53.575 12.525 1.683 9.542-6.47 13.738-5.125 13.738-5.125 2.72 6.887 1.008 11.97.491 13.233 3.204 3.5 5.146 7.963 5.146 13.421 0 19.204-11.696 23.433-22.83 24.67 1.792 1.55 3.392 4.597 3.392 9.26 0 6.69-.058 12.074-.058 13.72 0 1.33.9 2.892 3.434 2.4 19.858-6.62 34.166-25.354 34.166-47.437C100 23.62 77.612 1.233 50 1.233z"/><path d="M18.938 73.025c-.109.25-.5.325-.859.154-.362-.162-.567-.504-.45-.75.108-.254.5-.325.863-.154.362.158.57.5.445.75zm2.024 2.258c-.237.221-.704.117-1.02-.229-.33-.35-.388-.816-.146-1.037.246-.221.696-.117 1.025.233.329.346.391.808.141 1.033zm1.971 2.88c-.308.212-.808.012-1.116-.43-.309-.445-.309-.979.008-1.191.308-.213.804-.02 1.117.42.304.45.304.984-.009 1.2zm2.7 2.783c-.275.304-.858.22-1.283-.192-.438-.404-.558-.975-.283-1.279.279-.304.866-.217 1.296.192.433.404.562.979.27 1.279zm3.73 1.612c-.121.392-.684.571-1.25.405-.567-.171-.938-.63-.821-1.025.116-.396.683-.58 1.254-.4.562.166.933.625.817 1.02zm4.091.3c.013.413-.467.755-1.062.763-.596.012-1.084-.32-1.088-.725 0-.417.471-.754 1.067-.767.596-.012 1.083.321 1.083.73zm3.809-.646c.07.4-.342.817-.934.925-.579.109-1.117-.141-1.191-.541-.071-.413.35-.825.929-.934.587-.104 1.12.138 1.196.55z"/></g><defs><clipPath id="clip0_21_40"><path fill="#fff" d="M0 0h100v100H0z"/></clipPath></defs></svg>