<svg width="100" height="100" fill="none" xmlns="http://www.w3.org/2000/svg"><g clip-path="url(#clip0_21_50)"><path fill-rule="evenodd" clip-rule="evenodd" d="M50 0C22.387 0 0 22.387 0 50c0 27.612 22.387 50 50 50 27.612 0 50-22.388 50-50 0-27.613-22.388-50-50-50zm23.175 34.004c-.75 7.904-4.008 27.092-5.662 35.946-.7 3.75-2.084 5.004-3.417 5.125-2.904.267-5.109-1.92-7.921-3.763-4.4-2.883-6.887-4.679-11.158-7.495-4.938-3.255-1.738-5.042 1.075-7.963.737-.767 13.529-12.404 13.779-13.458.029-.133.062-.625-.233-.883-.296-.259-.725-.171-1.034-.1-.441.1-7.47 4.745-21.091 13.937-1.996 1.37-3.805 2.038-5.425 2.004-1.784-.037-5.217-1.008-7.771-1.841-3.13-1.017-5.621-1.559-5.404-3.284.112-.9 1.35-1.82 3.716-2.762 14.575-6.35 24.296-10.538 29.159-12.563 13.887-5.775 16.77-6.779 18.654-6.812 2.358-.034 2.925 1.912 2.733 3.912z" fill="#FCD743"/></g><defs><clipPath id="clip0_21_50"><path fill="#fff" d="M0 0h100v100H0z"/></clipPath></defs></svg>