<svg width="100" height="100" fill="none" xmlns="http://www.w3.org/2000/svg"><g clip-path="url(#clip0_21_53)"><path d="M92.983 7.017C85.967 0 74.671 0 52.083 0h-4.166c-22.588 0-33.884 0-40.9 7.017C0 14.033 0 25.329 0 47.917v4.166c0 22.588 0 33.88 7.017 40.9 7.016 7.021 18.312 7.017 40.9 7.017h4.166c22.588 0 33.88 0 40.9-7.017C100 85.967 100 74.671 100 52.083v-4.166c0-22.588 0-33.884-7.017-40.9zm-11.72 63.816H73.97c-2.78 0-3.596-2.216-8.542-7.162-4.329-4.171-6.183-4.713-7.262-4.713-1.471 0-1.909.417-1.909 2.5v6.538c0 1.791-.57 2.837-5.208 2.837-7.725 0-16.217-4.691-22.246-13.341-9.041-12.671-11.512-22.25-11.512-24.18 0-1.083.416-2.062 2.5-2.062h7.295c1.863 0 2.563.817 3.263 2.833 3.567 10.388 9.583 19.467 12.054 19.467.925 0 1.35-.43 1.35-2.78V40.034c-.27-4.941-2.9-5.35-2.9-7.108 0-.813.696-1.675 1.854-1.675H54.17c1.546 0 2.083.825 2.083 2.68v14.445c0 1.542.671 2.083 1.134 2.083.929 0 1.7-.541 3.4-2.241 5.254-5.871 8.962-14.909 8.962-14.909.467-1.083 1.317-2.062 3.175-2.062h7.292c2.204 0 2.67 1.133 2.204 2.679-.93 4.25-9.813 16.763-9.813 16.763-.775 1.237-1.083 1.854 0 3.245.775 1.084 3.321 3.246 5.021 5.255 3.133 3.524 5.496 6.495 6.154 8.545.609 2.059-.437 3.1-2.52 3.1z" fill="#FCD743"/></g><defs><clipPath id="clip0_21_53"><path fill="#fff" d="M0 0h100v100H0z"/></clipPath></defs></svg>