<svg width="100" height="100" fill="none" xmlns="http://www.w3.org/2000/svg"><g clip-path="url(#clip0_21_56)"><path fill-rule="evenodd" clip-rule="evenodd" d="M85.263 14.533C75.904 5.167 63.463.004 50.208 0 22.896 0 .667 22.225.654 49.55a49.462 49.462 0 006.617 24.775L.237 100l26.267-6.892a49.502 49.502 0 0023.68 6.034h.02c27.309 0 49.542-22.23 49.554-49.554.009-13.238-5.141-25.692-14.495-35.055zM50.208 90.771h-.016a41.08 41.08 0 01-20.963-5.742l-1.504-.891-15.588 4.087 4.163-15.2-.98-1.558A41.062 41.062 0 019.026 49.55C9.033 26.842 27.513 8.367 50.229 8.367c11 0 21.342 4.291 29.117 12.075 7.775 7.787 12.054 18.133 12.05 29.137-.013 22.717-18.488 41.192-41.188 41.192zM72.8 59.925c-1.237-.62-7.325-3.617-8.462-4.03-1.134-.412-1.959-.62-2.788.617-.83 1.238-3.196 4.03-3.92 4.859-.722.825-1.447.929-2.684.308-1.238-.62-5.23-1.925-9.959-6.146-3.679-3.283-6.166-7.337-6.887-8.579-.72-1.242-.075-1.908.542-2.525.558-.554 1.237-1.446 1.858-2.17.625-.717.83-1.234 1.246-2.063.412-.825.208-1.55-.104-2.171-.313-.617-2.788-6.712-3.817-9.192-1.004-2.416-2.025-2.087-2.788-2.125a47.697 47.697 0 00-2.374-.041c-.825 0-2.167.308-3.3 1.55-1.134 1.241-4.334 4.237-4.334 10.329 0 6.096 4.438 11.983 5.054 12.808.617.825 8.73 13.334 21.15 18.696 2.955 1.275 5.263 2.038 7.059 2.608 2.966.942 5.666.809 7.8.492 2.379-.354 7.325-2.996 8.358-5.888 1.033-2.891 1.033-5.374.72-5.887-.308-.52-1.133-.83-2.37-1.45z" fill="#FCD743"/></g><defs><clipPath id="clip0_21_56"><path fill="#fff" d="M0 0h100v100H0z"/></clipPath></defs></svg>